<svg xmlns="http://www.w3.org/2000/svg" viewBox="0 0 64 64" fill="none">
  <!-- Background circle -->
  <circle cx="32" cy="32" r="30" fill="#1a1a2e"/>

  <!-- Left speech bubble (Pro) -->
  <path d="M8 22c0-3.3 2.7-6 6-6h10c3.3 0 6 2.7 6 6v10c0 3.3-2.7 6-6 6h-2l-4 5v-5h-4c-3.3 0-6-2.7-6-6v-10z" fill="url(#cyan)"/>

  <!-- Right speech bubble (Con) -->
  <path d="M56 32c0 3.3-2.7 6-6 6H40c-3.3 0-6-2.7-6-6V22c0-3.3 2.7-6 6-6h2l4-5v5h4c3.3 0 6 2.7 6 6v10z" fill="url(#purple)"/>

  <!-- Lightning bolt (VS) -->
  <path d="M35 28l-4 8h4l-3 8 8-10h-5l4-8h-8l4 2z" fill="#ffd700" stroke="#1a1a2e" stroke-width="0.5"/>

  <!-- AI circuit dots on bubbles -->
  <circle cx="13" cy="25" r="1.5" fill="#1a1a2e" opacity="0.6"/>
  <circle cx="18" cy="25" r="1.5" fill="#1a1a2e" opacity="0.6"/>
  <circle cx="23" cy="25" r="1.5" fill="#1a1a2e" opacity="0.6"/>

  <circle cx="41" cy="25" r="1.5" fill="#1a1a2e" opacity="0.6"/>
  <circle cx="46" cy="25" r="1.5" fill="#1a1a2e" opacity="0.6"/>
  <circle cx="51" cy="25" r="1.5" fill="#1a1a2e" opacity="0.6"/>

  <!-- Gradients -->
  <defs>
    <linearGradient id="cyan" x1="0%" y1="0%" x2="100%" y2="100%">
      <stop offset="0%" stop-color="#00d9ff"/>
      <stop offset="100%" stop-color="#0099cc"/>
    </linearGradient>
    <linearGradient id="purple" x1="0%" y1="0%" x2="100%" y2="100%">
      <stop offset="0%" stop-color="#a855f7"/>
      <stop offset="100%" stop-color="#7c3aed"/>
    </linearGradient>
  </defs>
</svg>
